<svg xmlns="http://www.w3.org/2000/svg" xmlns:xlink="http://www.w3.org/1999/xlink" enable-background="new 0 0 64 64" id="Layer_1" version="1.0" viewBox="0 0 64 64" xml:space="preserve" preserveAspectRatio="xMidYMid meet" style="width: 48px; height: 48px; transform-origin: 50% 50%; transform: scaleX(1) scaleY(1) rotate(0deg);" width="48px" height="48px"><circle id="svg-editor-bg-shape" data-editor="bg-shape" cx="32" cy="32" r="25.6" fill="#00C3FF" stroke="none" style="pointer-events: none;"/><rect height="39" width="2" x="29" y="13" fill="#000000" style="fill:#000000;stroke:none" stroke="none" class=""/><rect height="39" width="2" x="33" y="13" fill="#000000" style="fill:#000000;stroke:none" stroke="none" class=""/><path d="M40.988,23c0,0,0-6-9-6s-8,7-8,7s0,7,8,7  c9,0,10.012,6,10.012,7c0,2,0.988,8-10.012,8c-9,0-8.988-4-8.988-5" fill="none" stroke="#000000" stroke-miterlimit="10" stroke-width="2" style="fill:none;stroke:#000000" class=""/><path d="M53.92,10.081c12.107,12.105,12.107,31.732,0,43.838  c-12.106,12.108-31.734,12.108-43.839,0c-12.107-12.105-12.107-31.732,0-43.838C22.186-2.027,41.813-2.027,53.92,10.081z" fill="none" stroke="#000000" stroke-miterlimit="10" stroke-width="2" style="fill:none;stroke:#000000" class=""/></svg>